<svg xmlns="http://www.w3.org/2000/svg" viewBox="0 0 512 512">
  <rect width="512" height="512" fill="#4f46e5"/>
  <rect x="92" y="92" width="328" height="328" rx="88" fill="#4338ca"/>
  <path d="M164 176c0-18.8 15.2-34 34-34h90c25.3 0 47.8 11.7 62.7 30.4 10.5 13.2 15.3 28.5 15.3 45.3 0 28.6-13.9 54.2-36.7 69.8 15.3 11.5 26.4 28.8 30.1 49.1l2.5 13.1c1.7 8.8-5 17.2-14.1 17.2h-22.4c-6.9 0-12.8-4.9-14.1-11.6l-1.9-9.1c-5.2-23.7-20.8-35.5-46.6-35.5H220v45.2c0 7.7-6.3 14-14 14h-28c-7.7 0-14-6.3-14-14V176Zm56 27v54h59c17.9 0 28.7-10.3 28.7-27.3 0-16.3-10.8-26.7-28.7-26.7h-59Z" fill="#fff"/>
  <circle cx="380" cy="140" r="34" fill="#22c55e"/>
</svg>
