<svg xmlns="http://www.w3.org/2000/svg" viewBox="0 0 512 512">
  <rect width="512" height="512" rx="112" fill="#eef2ff"/>
  <rect x="74" y="74" width="364" height="364" rx="92" fill="#4f46e5"/>
  <path d="M156 173c0-20.4 16.6-37 37-37h92c26.1 0 49.3 12 64.7 31.3C361 181 368 197.9 368 216c0 29.4-14.1 55.5-37.2 72 15.9 11.9 27.1 29.5 31.1 50.3l2.9 15c1.8 9.4-5.3 18.2-14.9 18.2h-24.3c-7.2 0-13.4-5.1-14.8-12.2l-2.2-10.4c-5.7-25.6-22.6-38.4-50.4-38.4H214v48.9c0 8.3-6.7 15-15 15h-28c-8.3 0-15-6.7-15-15V173Zm58 29v57h64c19.4 0 31-10.9 31-28.8 0-17.1-11.6-28.2-31-28.2h-64Z" fill="#fff"/>
  <circle cx="385" cy="138" r="38" fill="#22c55e"/>
</svg>
