<svg xmlns="http://www.w3.org/2000/svg" viewBox="0 0 192 192">
  <rect width="192" height="192" rx="44" fill="#eef2ff"/>
  <rect x="28" y="28" width="136" height="136" rx="34" fill="#4f46e5"/>
  <path d="M58 62c0-7.7 6.3-14 14-14h34c9.7 0 18.4 4.5 24 11.6 4.1 5.1 6 11.4 6 18.1 0 10.9-5.3 20.7-14 26.8 5.8 4.4 10 11 11.4 18.8l.8 4.3c.6 3.1-1.8 6-5 6h-8.8c-2.4 0-4.4-1.7-4.9-4l-.7-3c-2.2-9.9-8.7-14.9-19.2-14.9H80v17.9c0 2.8-2.2 5-5 5H63c-2.8 0-5-2.2-5-5V62Zm22 11v21h24c7.5 0 12-4.1 12-10.8 0-6.4-4.5-10.2-12-10.2H80Z" fill="#fff"/>
  <circle cx="138" cy="52" r="14" fill="#22c55e"/>
</svg>
